<svg width="100" height="100" version="1.1" viewBox="0 0 26.458 26.458" xmlns="http://www.w3.org/2000/svg"><path transform="scale(.26458)" d="m36.198 18.773-5.7628 3.327a0.46187 0.46187 90.001 0 0-1.1e-5 0.79999l11.605 6.7a0.46192 0.46192 89.998 0 1 2.4e-5 0.80005l-12.361 7.1374a1.3857 1.3857 120 0 0-0.69279 1.2v14.271a0.46188 0.46188 150 0 1-0.69282 0.4l-11.605-6.7a0.46188 0.46188 150 0 0-0.69282 0.4v6.6539a1.3858 1.3858 60.003 0 0 0.69277 1.2001l11.605 6.7018a1.3858 1.3858 60.003 0 1 0.69277 1.2001v13.398a1.3859 1.3859 60.005 0 0 0.69275 1.2001l5.7629 3.3287a0.46178 0.46178 150.01 0 0 0.69275-0.39987v-13.4a0.4619 0.4619 150 0 1 0.69284-0.40003l12.36 7.1356a1.3858 1.3858 9.0239e-7 0 0 1.3857 0l12.36-7.1356a0.4619 0.4619 30.001 0 1 0.69284 0.40003v13.4a0.46178 0.46178 29.995 0 0 0.69275 0.39987l5.7629-3.3287a1.3859 1.3859 119.99 0 0 0.69275-1.2001v-13.398a1.3858 1.3858 120 0 1 0.69277-1.2001l11.605-6.7018a1.3858 1.3858 120 0 0 0.69277-1.2001v-6.6539a0.46188 0.46188 30 0 0-0.69282-0.4l-11.605 6.7a0.46188 0.46188 30 0 1-0.69282-0.4v-14.271a1.3857 1.3857 60.002 0 0-0.69279-1.2l-12.361-7.1374a0.46192 0.46192 90.002 0 1 2.4e-5 -0.80005l11.605-6.7a0.46187 0.46187 89.999 0 0-1.1e-5 -0.79999l-5.7628-3.327a1.3857 1.3857 180 0 0-1.3856 1.7e-5l-11.605 6.7a1.3856 1.3856 9.5495e-7 0 1-1.3856 0l-11.605-6.7a1.3857 1.3857 7.3865e-4 0 0-1.3856-1.7e-5zm14.376 15.754 12.361 7.1374a1.3857 1.3857 60.002 0 1 0.69279 1.2v14.271a1.3857 1.3857 120 0 1-0.69279 1.2l-12.361 7.1374a1.3854 1.3854 9.025e-7 0 1-1.3856 0l-12.361-7.1374a1.3857 1.3857 60.002 0 1-0.69279-1.2v-14.271a1.3857 1.3857 120 0 1 0.69279-1.2l12.361-7.1374a1.3854 1.3854 180 0 1 1.3856 0z" fill="#bda147" fill-rule="evenodd"/><g fill-rule="evenodd"><g fill="#b95f4f"><path d="m10.062 11.964v2.8754a0.34667 0.34667 60.019 0 0 0.17314 0.30011l2.4877 1.4384a0.11538 0.11538 150.02 0 0 0.17314-0.09989v-2.8754a0.34667 0.34667 60.019 0 0-0.17314-0.30011l-2.4877-1.4384a0.11538 0.11538 150.02 0 0-0.17314 0.09989z"/><path d="m4.334 8.657v2.8754a0.34667 0.34667 60.019 0 0 0.17314 0.30011l2.4877 1.4384a0.11538 0.11538 150.02 0 0 0.17314-0.09989v-2.8754a0.34667 0.34667 60.019 0 0-0.17314-0.30011l-2.4877-1.4384a0.11538 0.11538 150.02 0 0-0.17314 0.099887z"/><path d="m10.062 18.579v2.8754a0.34667 0.34667 60.019 0 0 0.17314 0.30011l2.4877 1.4384a0.11538 0.11538 150.02 0 0 0.17314-0.09989v-2.8754a0.34667 0.34667 60.019 0 0-0.17314-0.30011l-2.4877-1.4384a0.11538 0.11538 150.02 0 0-0.17314 0.09989z"/><path d="m4.334 15.272v2.8754a0.34667 0.34667 60.019 0 0 0.17314 0.30011l2.4877 1.4384a0.11538 0.11538 150.02 0 0 0.17314-0.09989v-2.8754a0.34667 0.34667 60.019 0 0-0.17314-0.30011l-2.4877-1.4384a0.11538 0.11538 150.02 0 0-0.17314 0.09989z"/></g><g fill="#518baa"><path d="m16.161 11.864-2.4896 1.4386a0.34655 0.34655 119.99 0 0-0.17317 0.30006v2.8754a0.11542 0.11542 29.99 0 0 0.17317 0.09994l2.4896-1.4386a0.34655 0.34655 119.99 0 0 0.17317-0.30006v-2.8754a0.11542 0.11542 29.99 0 0-0.17317-0.09994z"/><path d="m16.161 18.479-2.4896 1.4386a0.34655 0.34655 119.99 0 0-0.17317 0.30006v2.8754a0.11542 0.11542 29.99 0 0 0.17317 0.09994l2.4896-1.4386a0.34655 0.34655 119.99 0 0 0.17317-0.30006v-2.8754a0.11542 0.11542 29.99 0 0-0.17317-0.09994z"/><path d="m21.889 8.5571-2.4896 1.4385a0.34655 0.34655 119.99 0 0-0.17317 0.30006v2.8754a0.11542 0.11542 29.99 0 0 0.17317 0.09994l2.4896-1.4386a0.34655 0.34655 119.99 0 0 0.17317-0.30006v-2.8754a0.11542 0.11542 29.99 0 0-0.17317-0.099939z"/><path d="m21.889 15.172-2.4896 1.4386a0.34655 0.34655 119.99 0 0-0.17317 0.30006v2.8754a0.11542 0.11542 29.99 0 0 0.17317 0.09994l2.4896-1.4386a0.34655 0.34655 119.99 0 0 0.17317-0.30006v-2.8754a0.11542 0.11542 29.99 0 0-0.17317-0.09994z"/></g><g fill="#61a699"><path d="m13.024 9.7055-2.4896 1.4385a0.11556 0.11556 90 0 0 0 0.20012l2.4896 1.4385a0.34625 0.34625 0.0085375 0 0 0.34637 5.1e-5l2.4915-1.4387a0.11549 0.11549 90 0 0 0-0.20002l-2.4915-1.4387a0.34625 0.34625 179.99 0 0-0.34637 5.16e-5z"/><path d="m18.753 6.3988-2.4915 1.4387a0.11549 0.11549 90 0 0 0 0.20002l2.4915 1.4387a0.34636 0.34636 4.3715e-6 0 0 0.3464 1e-7l2.4915-1.4387a0.11549 0.11549 90 0 0 0-0.20002l-2.4915-1.4387a0.34636 0.34636 180 0 0-0.3464 1e-7z"/><path d="m7.2956 6.3989-2.4896 1.4385a0.11556 0.11556 90 0 0 0 0.20012l2.4896 1.4385a0.34625 0.34625 0.008544 0 0 0.34637 5.17e-5l2.4915-1.4387a0.11549 0.11549 90 0 0 0-0.20002l-2.4915-1.4387a0.34625 0.34625 179.99 0 0-0.34637 5.17e-5z"/><path d="m13.024 3.0922-2.4896 1.4385a0.11556 0.11556 90 0 0 0 0.20012l2.4896 1.4385a0.34625 0.34625 0.0085375 0 0 0.34637 5.16e-5l2.4915-1.4387a0.11549 0.11549 90 0 0 0-0.20002l-2.4915-1.4387a0.34625 0.34625 179.99 0 0-0.34637 5.16e-5z"/></g></g></svg>
